<svg width="591" height="540" viewBox="0 0 591 540" fill="none" xmlns="http://www.w3.org/2000/svg">
<g clip-path="url(#clip0)">
<rect width="591" height="540" fill="white"/>
<line x1="49" y1="197.5" x2="589" y2="197.5" stroke="#DDDDDD"/>
<text fill="#494949" xml:space="preserve" style="white-space: pre" font-family="Telesans Text" font-size="12" letter-spacing="0px"><tspan x="49.4785" y="184.11">Male</tspan></text>
<text fill="#494949" xml:space="preserve" style="white-space: pre" font-family="Telesans Text" font-size="12" letter-spacing="0px"><tspan x="111.039" y="185.11">Female</tspan></text>
<text fill="#494949" xml:space="preserve" style="white-space: pre" font-family="Telesans Text" font-size="12" letter-spacing="0px"><tspan x="51.1484" y="233.11">1928</tspan></text>
<text fill="#494949" xml:space="preserve" style="white-space: pre" font-family="Telesans Text" font-size="12" letter-spacing="0px"><tspan x="98.1367" y="233.11">1938</tspan></text>
<text fill="#494949" xml:space="preserve" style="white-space: pre" font-family="Telesans Text" font-size="12" letter-spacing="0px"><tspan x="158.15" y="233.11">1948</tspan></text>
<text fill="#494949" xml:space="preserve" style="white-space: pre" font-family="Telesans Text" font-size="12" letter-spacing="0px"><tspan x="218.449" y="233.11">1958</tspan></text>
<text fill="#494949" xml:space="preserve" style="white-space: pre" font-family="Telesans Text" font-size="12" letter-spacing="0px"><tspan x="278.08" y="233.11">1968</tspan></text>
<text fill="#494949" xml:space="preserve" style="white-space: pre" font-family="Telesans Text" font-size="12" letter-spacing="0px"><tspan x="337.354" y="233.11">1978</tspan></text>
<text fill="#494949" xml:space="preserve" style="white-space: pre" font-family="Telesans Text" font-size="12" letter-spacing="0px"><tspan x="398.133" y="233.11">1988</tspan></text>
<text fill="#494949" xml:space="preserve" style="white-space: pre" font-family="Telesans Text" font-size="12" letter-spacing="0px"><tspan x="458.186" y="233.11">1998</tspan></text>
<text fill="#494949" xml:space="preserve" style="white-space: pre" font-family="Telesans Text" font-size="12" letter-spacing="0px"><tspan x="516.246" y="233.11">2008</tspan></text>
<text fill="#494949" xml:space="preserve" style="white-space: pre" font-family="Telesans Text" font-size="12" letter-spacing="0px"><tspan x="567.232" y="233.11">2018</tspan></text>
<line x1="51.5" y1="242" x2="51.5" y2="256" stroke="#959595"/>
<line x1="111.5" y1="242" x2="111.5" y2="256" stroke="#959595"/>
<line x1="171.5" y1="242" x2="171.5" y2="256" stroke="#959595"/>
<line x1="231.5" y1="242" x2="231.5" y2="256" stroke="#959595"/>
<line x1="291.5" y1="242" x2="291.5" y2="256" stroke="#959595"/>
<line x1="351.5" y1="242" x2="351.5" y2="256" stroke="#959595"/>
<line x1="411.5" y1="242" x2="411.5" y2="256" stroke="#959595"/>
<line x1="471.5" y1="242" x2="471.5" y2="256" stroke="#959595"/>
<line x1="531.5" y1="242" x2="531.5" y2="256" stroke="#959595"/>
<text fill="#494949" xml:space="preserve" style="white-space: pre" font-family="Telesans Text" font-size="12" letter-spacing="0px"><tspan x="0.03125" y="283.36">Actor</tspan></text>
<rect x="51" y="268" width="4.27658" height="24" fill="#D2B8FF"/>
<rect x="77" y="177" width="8" height="8" fill="#D2B8FF"/>
<rect x="56.9961" y="268" width="4.27658" height="24" fill="#D2B8FF"/>
<rect x="62.9922" y="268" width="4.27658" height="24" fill="#D2B8FF"/>
<rect x="68.9922" y="268" width="4.27658" height="24" fill="#D2B8FF"/>
<rect x="74.9883" y="268" width="4.27658" height="24" fill="#D2B8FF"/>
<rect x="80.9844" y="268" width="4.27658" height="24" fill="#D2B8FF"/>
<rect x="86.9805" y="268" width="4.27658" height="24" fill="#D2B8FF"/>
<rect x="92.9766" y="268" width="4.27658" height="24" fill="#D2B8FF"/>
<rect x="98.9766" y="268" width="4.27658" height="24" fill="#D2B8FF"/>
<rect x="104.973" y="268" width="4.27658" height="24" fill="#D2B8FF"/>
<rect x="110.969" y="268" width="4.27658" height="24" fill="#D2B8FF"/>
<rect x="116.965" y="268" width="4.27658" height="24" fill="#D2B8FF"/>
<rect x="122.961" y="268" width="4.27658" height="24" fill="#D2B8FF"/>
<rect x="128.961" y="268" width="4.27658" height="24" fill="#D2B8FF"/>
<rect x="134.957" y="268" width="4.27658" height="24" fill="#D2B8FF"/>
<rect x="140.953" y="268" width="4.27658" height="24" fill="#D2B8FF"/>
<rect x="146.949" y="268" width="4.27658" height="24" fill="#D2B8FF"/>
<rect x="152.945" y="268" width="4.27658" height="24" fill="#D2B8FF"/>
<rect x="158.945" y="268" width="4.27658" height="24" fill="#D2B8FF"/>
<rect x="164.941" y="268" width="4.27658" height="24" fill="#D2B8FF"/>
<rect x="170.938" y="268" width="4.27658" height="24" fill="#D2B8FF"/>
<rect x="176.934" y="268" width="4.27658" height="24" fill="#D2B8FF"/>
<rect x="182.934" y="268" width="4.27658" height="24" fill="#D2B8FF"/>
<rect x="188.93" y="268" width="4.27658" height="24" fill="#D2B8FF"/>
<rect x="194.926" y="268" width="4.27658" height="24" fill="#D2B8FF"/>
<rect x="200.922" y="268" width="4.27658" height="24" fill="#D2B8FF"/>
<rect x="206.918" y="268" width="4.27658" height="24" fill="#D2B8FF"/>
<rect x="212.914" y="268" width="4.27658" height="24" fill="#D2B8FF"/>
<rect x="218.914" y="268" width="4.27658" height="24" fill="#D2B8FF"/>
<rect x="224.91" y="268" width="4.27658" height="24" fill="#D2B8FF"/>
<rect x="230.906" y="268" width="4.27658" height="24" fill="#D2B8FF"/>
<rect x="236.906" y="268" width="4.27658" height="24" fill="#D2B8FF"/>
<rect x="242.898" y="268" width="4.27658" height="24" fill="#D2B8FF"/>
<rect x="248.898" y="268" width="4.27658" height="24" fill="#D2B8FF"/>
<rect x="254.895" y="268" width="4.27658" height="24" fill="#D2B8FF"/>
<rect x="260.891" y="268" width="4.27658" height="24" fill="#D2B8FF"/>
<rect x="266.887" y="268" width="4.27658" height="24" fill="#2D26FF"/>
<rect x="153" y="177" width="8" height="8" fill="#2D26FF"/>
<rect x="272.887" y="268" width="4.27658" height="24" fill="#D2B8FF"/>
<rect x="278.883" y="268" width="4.27658" height="24" fill="#D2B8FF"/>
<rect x="284.879" y="268" width="4.27658" height="24" fill="#D2B8FF"/>
<rect x="290.875" y="268" width="4.27658" height="24" fill="#D2B8FF"/>
<rect x="296.875" y="268" width="4.27658" height="24" fill="#D2B8FF"/>
<rect x="302.867" y="268" width="4.27658" height="24" fill="#D2B8FF"/>
<rect x="308.867" y="268" width="4.27658" height="24" fill="#D2B8FF"/>
<rect x="314.863" y="268" width="4.27658" height="24" fill="#D2B8FF"/>
<rect x="320.859" y="268" width="4.27658" height="24" fill="#D2B8FF"/>
<rect x="326.855" y="268" width="4.27658" height="24" fill="#D2B8FF"/>
<rect x="332.852" y="268" width="4.27658" height="24" fill="#D2B8FF"/>
<rect x="338.852" y="268" width="4.27658" height="24" fill="#D2B8FF"/>
<rect x="344.848" y="268" width="4.27658" height="24" fill="#D2B8FF"/>
<rect x="350.844" y="268" width="4.27658" height="24" fill="#D2B8FF"/>
<rect x="356.84" y="268" width="4.27658" height="24" fill="#D2B8FF"/>
<rect x="362.836" y="268" width="4.27658" height="24" fill="#D2B8FF"/>
<rect x="368.836" y="268" width="4.27658" height="24" fill="#D2B8FF"/>
<rect x="374.832" y="268" width="4.27658" height="24" fill="#D2B8FF"/>
<rect x="380.828" y="268" width="4.27658" height="24" fill="#2D26FF"/>
<rect x="386.828" y="268" width="4.27658" height="24" fill="#D2B8FF"/>
<rect x="392.82" y="268" width="4.27658" height="24" fill="#D2B8FF"/>
<rect x="398.82" y="268" width="4.27658" height="24" fill="#D2B8FF"/>
<rect x="404.816" y="268" width="4.27658" height="24" fill="#D2B8FF"/>
<rect x="410.812" y="268" width="4.27658" height="24" fill="#D2B8FF"/>
<rect x="416.812" y="268" width="4.27658" height="24" fill="#D2B8FF"/>
<rect x="422.805" y="268" width="4.27658" height="24" fill="#D2B8FF"/>
<rect x="428.805" y="268" width="4.27658" height="24" fill="#D2B8FF"/>
<rect x="434.801" y="268" width="4.27658" height="24" fill="#D2B8FF"/>
<rect x="440.797" y="268" width="4.27658" height="24" fill="#D2B8FF"/>
<rect x="446.797" y="268" width="4.27658" height="24" fill="#D2B8FF"/>
<rect x="452.789" y="268" width="4.27658" height="24" fill="#D2B8FF"/>
<rect x="458.789" y="268" width="4.27658" height="24" fill="#D2B8FF"/>
<rect x="464.785" y="268" width="4.27658" height="24" fill="#D2B8FF"/>
<rect x="470.781" y="268" width="4.27658" height="24" fill="#D2B8FF"/>
<rect x="476.781" y="268" width="4.27658" height="24" fill="#D2B8FF"/>
<rect x="482.777" y="268" width="4.27658" height="24" fill="#D2B8FF"/>
<rect x="488.773" y="268" width="4.27658" height="24" fill="#D2B8FF"/>
<rect x="494.77" y="268" width="4.27658" height="24" fill="#D2B8FF"/>
<rect x="500.766" y="268" width="4.27658" height="24" fill="#D2B8FF"/>
<rect x="506.766" y="268" width="4.27658" height="24" fill="#2D26FF"/>
<rect x="512.758" y="268" width="4.27658" height="24" fill="#D2B8FF"/>
<rect x="518.758" y="268" width="4.27658" height="24" fill="#D2B8FF"/>
<rect x="524.754" y="268" width="4.27658" height="24" fill="#2D26FF"/>
<rect x="530.75" y="268" width="4.27658" height="24" fill="#D2B8FF"/>
<rect x="536.75" y="268" width="4.27658" height="24" fill="#2D26FF"/>
<rect x="542.746" y="268" width="4.27658" height="24" fill="#D2B8FF"/>
<rect x="548.742" y="268" width="4.27658" height="24" fill="#D2B8FF"/>
<rect x="554.738" y="268" width="4.27658" height="24" fill="#D2B8FF"/>
<rect x="560.734" y="268" width="4.27658" height="24" fill="#D2B8FF"/>
<rect x="566.734" y="268" width="4.27658" height="24" fill="#D2B8FF"/>
<rect x="572.727" y="268" width="4.27658" height="24" fill="#D2B8FF"/>
<rect x="51" y="305" width="4.27658" height="24" fill="#D2B8FF"/>
<rect x="56.9967" y="305" width="4.27658" height="24" fill="#D2B8FF"/>
<rect x="62.9943" y="305" width="4.27658" height="24" fill="#D2B8FF"/>
<rect x="68.991" y="305" width="4.27658" height="24" fill="#D2B8FF"/>
<rect x="74.9876" y="305" width="4.27658" height="24" fill="#D2B8FF"/>
<rect x="80.9853" y="305" width="4.27658" height="24" fill="#D2B8FF"/>
<rect x="86.981" y="305" width="4.27658" height="24" fill="#D2B8FF"/>
<rect x="92.9776" y="305" width="4.27658" height="24" fill="#D2B8FF"/>
<rect x="98.9753" y="305" width="4.27658" height="24" fill="#D2B8FF"/>
<rect x="104.972" y="305" width="4.27658" height="24" fill="#D2B8FF"/>
<rect x="110.969" y="305" width="4.27658" height="24" fill="#D2B8FF"/>
<rect x="116.965" y="305" width="4.27658" height="24" fill="#D2B8FF"/>
<rect x="122.963" y="305" width="4.27658" height="24" fill="#D2B8FF"/>
<rect x="128.96" y="305" width="4.27658" height="24" fill="#D2B8FF"/>
<rect x="134.956" y="305" width="4.27658" height="24" fill="#D2B8FF"/>
<rect x="140.953" y="305" width="4.27658" height="24" fill="#D2B8FF"/>
<rect x="146.95" y="305" width="4.27658" height="24" fill="#D2B8FF"/>
<rect x="152.946" y="305" width="4.27658" height="24" fill="#D2B8FF"/>
<rect x="158.944" y="305" width="4.27658" height="24" fill="#D2B8FF"/>
<rect x="164.942" y="305" width="4.27658" height="24" fill="#D2B8FF"/>
<rect x="170.937" y="305" width="4.27658" height="24" fill="#D2B8FF"/>
<rect x="176.935" y="305" width="4.27658" height="24" fill="#D2B8FF"/>
<rect x="182.932" y="305" width="4.27658" height="24" fill="#D2B8FF"/>
<rect x="188.928" y="305" width="4.27658" height="24" fill="#D2B8FF"/>
<rect x="194.926" y="305" width="4.27658" height="24" fill="#D2B8FF"/>
<rect x="200.922" y="305" width="4.27658" height="24" fill="#D2B8FF"/>
<rect x="206.918" y="305" width="4.27658" height="24" fill="#D2B8FF"/>
<rect x="212.915" y="305" width="4.27658" height="24" fill="#D2B8FF"/>
<rect x="218.913" y="305" width="4.27658" height="24" fill="#D2B8FF"/>
<rect x="224.909" y="305" width="4.27658" height="24" fill="#D2B8FF"/>
<rect x="230.906" y="305" width="4.27658" height="24" fill="#D2B8FF"/>
<rect x="236.904" y="305" width="4.27658" height="24" fill="#D2B8FF"/>
<rect x="242.9" y="305" width="4.27658" height="24" fill="#D2B8FF"/>
<rect x="248.897" y="305" width="4.27658" height="24" fill="#D2B8FF"/>
<rect x="254.895" y="305" width="4.27658" height="24" fill="#D2B8FF"/>
<rect x="260.891" y="305" width="4.27658" height="24" fill="#D2B8FF"/>
<rect x="266.887" y="305" width="4.27658" height="24" fill="#D2B8FF"/>
<rect x="272.885" y="305" width="4.27658" height="24" fill="#D2B8FF"/>
<rect x="278.882" y="305" width="4.27658" height="24" fill="#D2B8FF"/>
<rect x="284.878" y="305" width="4.27658" height="24" fill="#D2B8FF"/>
<rect x="290.876" y="305" width="4.27658" height="24" fill="#D2B8FF"/>
<rect x="296.873" y="305" width="4.27658" height="24" fill="#D2B8FF"/>
<rect x="302.869" y="305" width="4.27658" height="24" fill="#D2B8FF"/>
<rect x="308.866" y="305" width="4.27658" height="24" fill="#D2B8FF"/>
<rect x="314.864" y="305" width="4.27658" height="24" fill="#D2B8FF"/>
<rect x="320.859" y="305" width="4.27658" height="24" fill="#D2B8FF"/>
<rect x="326.856" y="305" width="4.27658" height="24" fill="#D2B8FF"/>
<rect x="332.854" y="305" width="4.27658" height="24" fill="#D2B8FF"/>
<rect x="338.851" y="305" width="4.27658" height="24" fill="#D2B8FF"/>
<rect x="344.847" y="305" width="4.27658" height="24" fill="#D2B8FF"/>
<rect x="350.845" y="305" width="4.27658" height="24" fill="#D2B8FF"/>
<rect x="356.841" y="305" width="4.27658" height="24" fill="#D2B8FF"/>
<rect x="362.838" y="305" width="4.27658" height="24" fill="#D2B8FF"/>
<rect x="368.836" y="305" width="4.27658" height="24" fill="#D2B8FF"/>
<rect x="374.833" y="305" width="4.27658" height="24" fill="#D2B8FF"/>
<rect x="380.828" y="305" width="4.27658" height="24" fill="#D2B8FF"/>
<rect x="386.826" y="305" width="4.27658" height="24" fill="#D2B8FF"/>
<rect x="392.823" y="305" width="4.27658" height="24" fill="#D2B8FF"/>
<rect x="398.819" y="305" width="4.27658" height="24" fill="#D2B8FF"/>
<rect x="404.817" y="305" width="4.27658" height="24" fill="#2D26FF"/>
<rect x="410.814" y="305" width="4.27658" height="24" fill="#D2B8FF"/>
<rect x="416.81" y="305" width="4.27658" height="24" fill="#D2B8FF"/>
<rect x="422.807" y="305" width="4.27658" height="24" fill="#D2B8FF"/>
<rect x="428.805" y="305" width="4.27658" height="24" fill="#D2B8FF"/>
<rect x="434.801" y="305" width="4.27658" height="24" fill="#D2B8FF"/>
<rect x="440.797" y="305" width="4.27658" height="24" fill="#D2B8FF"/>
<rect x="446.795" y="305" width="4.27658" height="24" fill="#D2B8FF"/>
<rect x="452.791" y="305" width="4.27658" height="24" fill="#D2B8FF"/>
<rect x="458.788" y="305" width="4.27658" height="24" fill="#D2B8FF"/>
<rect x="464.786" y="305" width="4.27658" height="24" fill="#D2B8FF"/>
<rect x="470.782" y="305" width="4.27658" height="24" fill="#D2B8FF"/>
<rect x="476.779" y="305" width="4.27658" height="24" fill="#D2B8FF"/>
<rect x="482.777" y="305" width="4.27658" height="24" fill="#D2B8FF"/>
<rect x="488.773" y="305" width="4.27658" height="24" fill="#D2B8FF"/>
<rect x="494.77" y="305" width="4.27658" height="24" fill="#D2B8FF"/>
<rect x="500.766" y="305" width="4.27658" height="24" fill="#D2B8FF"/>
<rect x="506.763" y="305" width="4.27658" height="24" fill="#D2B8FF"/>
<rect x="512.76" y="305" width="4.27658" height="24" fill="#3328FA"/>
<rect x="518.757" y="305" width="4.27658" height="24" fill="#D2B8FF"/>
<rect x="524.754" y="305" width="4.27658" height="24" fill="#D2B8FF"/>
<rect x="530.751" y="305" width="4.27658" height="24" fill="#D2B8FF"/>
<rect x="536.748" y="305" width="4.27658" height="24" fill="#D2B8FF"/>
<rect x="542.745" y="305" width="4.27658" height="24" fill="#D2B8FF"/>
<rect x="548.743" y="305" width="4.27658" height="24" fill="#D2B8FF"/>
<rect x="554.738" y="305" width="4.27658" height="24" fill="#D2B8FF"/>
<rect x="560.735" y="305" width="4.27658" height="24" fill="#D2B8FF"/>
<rect x="566.733" y="305" width="4.27658" height="24" fill="#D2B8FF"/>
<rect x="572.729" y="305" width="4.27658" height="24" fill="#D2B8FF"/>
<rect x="578.726" y="305" width="4.27658" height="24" fill="#D2B8FF"/>
<rect x="584.724" y="305" width="4.27658" height="24" fill="#D2B8FF"/>
<rect x="51" y="342" width="4.27658" height="24" fill="#D2B8FF"/>
<rect x="56.9967" y="342" width="4.27658" height="24" fill="#D2B8FF"/>
<rect x="62.9943" y="342" width="4.27658" height="24" fill="#D2B8FF"/>
<rect x="68.991" y="342" width="4.27658" height="24" fill="#D2B8FF"/>
<rect x="74.9876" y="342" width="4.27658" height="24" fill="#D2B8FF"/>
<rect x="80.9853" y="342" width="4.27658" height="24" fill="#D2B8FF"/>
<rect x="86.981" y="342" width="4.27658" height="24" fill="#D2B8FF"/>
<rect x="92.9776" y="342" width="4.27658" height="24" fill="#D2B8FF"/>
<rect x="98.9753" y="342" width="4.27658" height="24" fill="#D2B8FF"/>
<rect x="104.972" y="342" width="4.27658" height="24" fill="#D2B8FF"/>
<rect x="110.969" y="342" width="4.27658" height="24" fill="#D2B8FF"/>
<rect x="116.965" y="342" width="4.27658" height="24" fill="#D2B8FF"/>
<rect x="122.963" y="342" width="4.27658" height="24" fill="#D2B8FF"/>
<rect x="128.96" y="342" width="4.27658" height="24" fill="#D2B8FF"/>
<rect x="134.956" y="342" width="4.27658" height="24" fill="#D2B8FF"/>
<rect x="140.953" y="342" width="4.27658" height="24" fill="#D2B8FF"/>
<rect x="146.95" y="342" width="4.27658" height="24" fill="#D2B8FF"/>
<rect x="152.946" y="342" width="4.27658" height="24" fill="#D2B8FF"/>
<rect x="158.944" y="342" width="4.27658" height="24" fill="#D2B8FF"/>
<rect x="164.942" y="342" width="4.27658" height="24" fill="#D2B8FF"/>
<rect x="170.937" y="342" width="4.27658" height="24" fill="#D2B8FF"/>
<rect x="176.935" y="342" width="4.27658" height="24" fill="#D2B8FF"/>
<rect x="182.932" y="342" width="4.27658" height="24" fill="#D2B8FF"/>
<rect x="188.928" y="342" width="4.27658" height="24" fill="#D2B8FF"/>
<rect x="194.926" y="342" width="4.27658" height="24" fill="#D2B8FF"/>
<rect x="200.922" y="342" width="4.27658" height="24" fill="#D2B8FF"/>
<rect x="206.918" y="342" width="4.27658" height="24" fill="#D2B8FF"/>
<rect x="212.915" y="342" width="4.27658" height="24" fill="#D2B8FF"/>
<rect x="218.913" y="342" width="4.27658" height="24" fill="#D2B8FF"/>
<rect x="224.909" y="342" width="4.27658" height="24" fill="#D2B8FF"/>
<rect x="230.906" y="342" width="4.27658" height="24" fill="#D2B8FF"/>
<rect x="236.904" y="342" width="4.27658" height="24" fill="#D2B8FF"/>
<rect x="242.9" y="342" width="4.27658" height="24" fill="#D2B8FF"/>
<rect x="248.897" y="342" width="4.27658" height="24" fill="#D2B8FF"/>
<rect x="254.895" y="342" width="4.27658" height="24" fill="#D2B8FF"/>
<rect x="260.891" y="342" width="4.27658" height="24" fill="#D2B8FF"/>
<rect x="266.887" y="342" width="4.27658" height="24" fill="#D2B8FF"/>
<rect x="272.885" y="342" width="4.27658" height="24" fill="#D2B8FF"/>
<rect x="278.882" y="342" width="4.27658" height="24" fill="#D2B8FF"/>
<rect x="284.878" y="342" width="4.27658" height="24" fill="#D2B8FF"/>
<rect x="290.876" y="342" width="4.27658" height="24" fill="#D2B8FF"/>
<rect x="296.873" y="342" width="4.27658" height="24" fill="#D2B8FF"/>
<rect x="302.869" y="342" width="4.27658" height="24" fill="#D2B8FF"/>
<rect x="308.866" y="342" width="4.27658" height="24" fill="#D2B8FF"/>
<rect x="314.864" y="342" width="4.27658" height="24" fill="#D2B8FF"/>
<rect x="320.859" y="342" width="4.27658" height="24" fill="#D2B8FF"/>
<rect x="326.856" y="342" width="4.27658" height="24" fill="#D2B8FF"/>
<rect x="332.854" y="342" width="4.27658" height="24" fill="#D2B8FF"/>
<rect x="338.851" y="342" width="4.27658" height="24" fill="#D2B8FF"/>
<rect x="344.847" y="342" width="4.27658" height="24" fill="#D2B8FF"/>
<rect x="350.845" y="342" width="4.27658" height="24" fill="#D2B8FF"/>
<rect x="356.841" y="342" width="4.27658" height="24" fill="#D2B8FF"/>
<rect x="362.838" y="342" width="4.27658" height="24" fill="#D2B8FF"/>
<rect x="368.836" y="342" width="4.27658" height="24" fill="#D2B8FF"/>
<rect x="374.833" y="342" width="4.27658" height="24" fill="#D2B8FF"/>
<rect x="380.828" y="342" width="4.27658" height="24" fill="#D2B8FF"/>
<rect x="386.826" y="342" width="4.27658" height="24" fill="#D2B8FF"/>
<rect x="392.823" y="342" width="4.27658" height="24" fill="#D2B8FF"/>
<rect x="398.819" y="342" width="4.27658" height="24" fill="#D2B8FF"/>
<rect x="404.817" y="342" width="4.27658" height="24" fill="#D2B8FF"/>
<rect x="410.814" y="342" width="4.27658" height="24" fill="#D2B8FF"/>
<rect x="416.81" y="342" width="4.27658" height="24" fill="#D2B8FF"/>
<rect x="422.807" y="342" width="4.27658" height="24" fill="#D2B8FF"/>
<rect x="428.805" y="342" width="4.27658" height="24" fill="#D2B8FF"/>
<rect x="434.801" y="342" width="4.27658" height="24" fill="#D2B8FF"/>
<rect x="440.797" y="342" width="4.27658" height="24" fill="#D2B8FF"/>
<rect x="446.795" y="342" width="4.27658" height="24" fill="#D2B8FF"/>
<rect x="452.791" y="342" width="4.27658" height="24" fill="#D2B8FF"/>
<rect x="458.788" y="342" width="4.27658" height="24" fill="#D2B8FF"/>
<rect x="464.786" y="342" width="4.27658" height="24" fill="#D2B8FF"/>
<rect x="470.782" y="342" width="4.27658" height="24" fill="#D2B8FF"/>
<rect x="476.779" y="342" width="4.27658" height="24" fill="#D2B8FF"/>
<rect x="482.777" y="342" width="4.27658" height="24" fill="#D2B8FF"/>
<rect x="488.773" y="342" width="4.27658" height="24" fill="#D2B8FF"/>
<rect x="494.77" y="342" width="4.27658" height="24" fill="#D2B8FF"/>
<rect x="500.766" y="342" width="4.27658" height="24" fill="#D2B8FF"/>
<rect x="506.763" y="342" width="4.27658" height="24" fill="#D2B8FF"/>
<rect x="512.76" y="342" width="4.27658" height="24" fill="#2D26FF"/>
<rect x="518.757" y="342" width="4.27658" height="24" fill="#D2B8FF"/>
<rect x="524.754" y="342" width="4.27658" height="24" fill="#D2B8FF"/>
<rect x="530.751" y="342" width="4.27658" height="24" fill="#D2B8FF"/>
<rect x="536.748" y="342" width="4.27658" height="24" fill="#D2B8FF"/>
<rect x="542.745" y="342" width="4.27658" height="24" fill="#D2B8FF"/>
<rect x="548.743" y="342" width="4.27658" height="24" fill="#2D26FF"/>
<rect x="554.738" y="342" width="4.27658" height="24" fill="#2D26FF"/>
<rect x="560.735" y="342" width="4.27658" height="24" fill="#2D26FF"/>
<rect x="566.733" y="342" width="4.27658" height="24" fill="#2D26FF"/>
<rect x="572.729" y="342" width="4.27658" height="24" fill="#D2B8FF"/>
<rect x="578.726" y="342" width="4.27658" height="24" fill="#D2B8FF"/>
<rect x="584.724" y="342" width="4.27658" height="24" fill="#D2B8FF"/>
<text fill="#494949" xml:space="preserve" style="white-space: pre" font-family="Telesans Text" font-size="12" letter-spacing="0px"><tspan x="0.777344" y="320.36">Actress</tspan></text>
<text fill="#494949" xml:space="preserve" style="white-space: pre" font-family="Telesans Text" font-size="12" letter-spacing="0px"><tspan x="0.378906" y="357.36">Director</tspan></text>
<path d="M514.75 388.81C513.5 390.405 511.5 391.544 508.125 392L508 391.658C509.625 390.861 511.125 389.38 512.375 387.671C513.625 386.076 514.5 384.367 514.75 383L515.25 383C515.625 384.367 516.375 386.076 517.625 387.671C518.875 389.266 520.375 390.747 522 391.658L521.875 392C518.625 391.658 516.5 390.519 515.25 388.81" fill="#1D1D1B"/>
<path d="M515 420L515 385" stroke="#1D1D1B"/>
<text fill="#333333" xml:space="preserve" style="white-space: pre" font-family="Telesans Text" font-size="14" letter-spacing="0px"><tspan x="346" y="440.92">2002 saw Halle Berry and Denzel </tspan><tspan x="346" y="460.92">Washington win the Best Actor and </tspan><tspan x="346" y="480.92">Actress Oscars</tspan></text>
<text fill="#494949" xml:space="preserve" style="white-space: pre" font-family="Telesans Text" font-size="15" letter-spacing="0px"><tspan x="49" y="144.2">What was the race of each years winners of the best actor, Actress award?</tspan></text>
<text fill="#333333" xml:space="preserve" style="white-space: pre" font-family="Austin News Deck" font-size="26" font-weight="600" letter-spacing="0px"><tspan x="49" y="82.696">The top Oscars overwhelmingly go to &#x2028;</tspan><tspan x="49" y="112.696">white people</tspan></text>
</g>
<defs>
<clipPath id="clip0">
<rect width="591" height="540" fill="white"/>
</clipPath>
</defs>
</svg>
