<svg width="12" height="13" viewBox="0 0 12 13" fill="none" xmlns="http://www.w3.org/2000/svg">
<path fill-rule="evenodd" clip-rule="evenodd" d="M7.8835 5.9018L8.89025 4.51424C9.39991 3.81179 9.24363 2.82916 8.54117 2.31949C7.83871 1.80983 6.85609 1.96611 6.34642 2.66857L5.33968 4.05613L4.53028 3.46887L5.53702 2.08131C6.37103 0.931834 7.97895 0.676093 9.12843 1.5101C10.2779 2.3441 10.5336 3.95203 9.69964 5.1015L8.6929 6.48906L7.8835 5.9018ZM6.67945 9.26416L5.87005 8.6769L4.86335 10.0644C4.35368 10.7669 3.37106 10.9231 2.6686 10.4135C1.96614 9.90381 1.80986 8.92119 2.31952 8.21873L3.32623 6.83122L2.51683 6.24396L1.51013 7.63147C0.676122 8.78095 0.931863 10.3889 2.08134 11.2229C3.23082 12.0569 4.83874 11.8011 5.67275 10.6517L6.67945 9.26416Z" fill="#999" shape-rendering="geometricPrecision" />
<path d="M7.11499 4.28516L4.0948 8.44778" stroke="#999" shape-rendering="geometricPrecision" />
</svg>
